<?xml version="1.0" encoding="UTF-8"?>
<svg xmlns="http://www.w3.org/2000/svg" xmlns:xlink="http://www.w3.org/1999/xlink" viewBox="0 0 48 48" width="48px" height="48px">
<g id="surface35803050">
<path style=" stroke:none;fill-rule:nonzero;fill:rgb(41.568628%,34.509805%,30.588236%);fill-opacity:1;" d="M 16.5 5 C 10.167969 5 5 10.167969 5 16.5 L 5 31.5 C 5 37.832031 10.167969 43 16.5 43 L 31.5 43 C 37.832031 43 43 37.832031 43 31.5 L 43 16.5 C 43 10.167969 37.832031 5 31.5 5 Z M 16.5 8 L 31.5 8 C 36.210938 8 40 11.789062 40 16.5 L 40 31.5 C 40 36.210938 36.210938 40 31.5 40 L 16.5 40 C 11.789062 40 8 36.210938 8 31.5 L 8 16.5 C 8 11.789062 11.789062 8 16.5 8 Z M 34 12 C 32.894531 12 32 12.894531 32 14 C 32 15.105469 32.894531 16 34 16 C 35.105469 16 36 15.105469 36 14 C 36 12.894531 35.105469 12 34 12 Z M 24 14 C 18.496094 14 14 18.496094 14 24 C 14 29.503906 18.496094 34 24 34 C 29.503906 34 34 29.503906 34 24 C 34 18.496094 29.503906 14 24 14 Z M 24 17 C 27.882812 17 31 20.117188 31 24 C 31 27.882812 27.882812 31 24 31 C 20.117188 31 17 27.882812 17 24 C 17 20.117188 20.117188 17 24 17 Z M 24 17 "/>
</g>
</svg>
