<?xml version="1.0" encoding="UTF-8"?>
<svg xmlns="http://www.w3.org/2000/svg" xmlns:xlink="http://www.w3.org/1999/xlink" viewBox="0 0 48 48" width="48px" height="48px">
<g id="surface35803791">
<path style=" stroke:none;fill-rule:nonzero;fill:rgb(41.568628%,34.509805%,30.588236%);fill-opacity:1;" d="M 24 4 C 12.972656 4 4 12.972656 4 24 C 4 35.027344 12.972656 44 24 44 C 35.027344 44 44 35.027344 44 24 C 44 12.972656 35.027344 4 24 4 Z M 24 7 C 33.40625 7 41 14.59375 41 24 C 41 33.40625 33.40625 41 24 41 C 22.566406 41 21.183594 40.804688 19.855469 40.472656 C 20.332031 39.496094 20.65625 38.535156 20.929688 37.527344 L 21.960938 33.460938 C 23.039062 34.480469 24.558594 35 26.5 35 C 31.738281 35 36 29.730469 36 23.25 C 36 16.839844 30.839844 12 24 12 C 17.378906 12 12 17.050781 12 23.25 C 12 26.230469 13.148438 28.941406 15.171875 30.878906 C 15.410156 31.109375 15.820312 30.980469 15.902344 30.660156 L 16.460938 28.328125 C 16.519531 28.089844 16.460938 27.839844 16.320312 27.628906 C 15.601562 26.609375 15 25.191406 15 23.25 C 15 18.699219 19.039062 15 24 15 C 24.820312 15 32 15.238281 32 23.5 C 32 27.589844 30.121094 32 26 32 C 24.960938 31.929688 24.21875 31.589844 23.789062 31.039062 C 23.050781 30.058594 23.230469 28.398438 23.449219 27.527344 L 24.21875 24.507812 C 24.421875 23.710938 24.5 23.027344 24.5 22.449219 C 24.5 20.5 23.320312 19.5 22 19.5 C 20.21875 19.5 19 21.390625 19 23.277344 C 19 24.308594 19.160156 25.410156 19.5 26.390625 L 17.230469 35.808594 C 17.230469 35.808594 17 36.417969 17 38.417969 C 17 38.621094 17.035156 39.148438 17.050781 39.507812 C 11.125 36.855469 7 30.925781 7 24 C 7 14.59375 14.59375 7 24 7 Z M 24 7 "/>
</g>
</svg>
