<?xml version="1.0" encoding="UTF-8"?>
<svg xmlns="http://www.w3.org/2000/svg" xmlns:xlink="http://www.w3.org/1999/xlink" viewBox="0 0 48 48" width="48px" height="48px">
<g id="surface35849602">
<path style=" stroke:none;fill-rule:nonzero;fill:rgb(41.568628%,34.509805%,30.588236%);fill-opacity:1;" d="M 11.5 6 C 8.480469 6 6 8.480469 6 11.5 L 6 36.5 C 6 39.519531 8.480469 42 11.5 42 L 36.5 42 C 39.519531 42 42 39.519531 42 36.5 L 42 11.5 C 42 8.480469 39.519531 6 36.5 6 Z M 11.5 9 L 36.5 9 C 37.898438 9 39 10.101562 39 11.5 L 39 36.5 C 39 37.898438 37.898438 39 36.5 39 L 11.5 39 C 10.101562 39 9 37.898438 9 36.5 L 9 11.5 C 9 10.101562 10.101562 9 11.5 9 Z M 22.496094 12 C 21.722656 12 21.078125 12.585938 21.003906 13.351562 C 20.796875 15.410156 19.945312 16.128906 19.101562 16.585938 C 18.253906 17.039062 17.480469 17.058594 17.480469 17.058594 C 16.660156 17.070312 16 17.738281 16 18.558594 L 16 22.5 C 16 23.328125 16.671875 24 17.5 24 L 19 24 L 19 28.5 C 19 32.625 22.375 36 26.5 36 C 28.75 36 30.324219 35.417969 31.332031 34.75 C 32.339844 34.078125 32.84375 33.171875 32.84375 33.171875 C 32.945312 32.960938 33 32.734375 33 32.5 L 33 29.5 C 33 28.945312 32.695312 28.4375 32.207031 28.175781 C 31.71875 27.917969 31.128906 27.945312 30.667969 28.253906 C 30.667969 28.253906 29.492188 29 28.023438 29 C 27.441406 29 27.203125 28.882812 27.167969 28.855469 C 27.132812 28.828125 27 28.742188 27 28 L 27 24 L 29.5 24 C 30.328125 24 31 23.328125 31 22.5 L 31 17.5 C 31 16.671875 30.328125 16 29.5 16 L 27 16 L 27 13.5 C 27 12.671875 26.328125 12 25.5 12 Z M 23.679688 15 L 24 15 L 24 17.5 C 24 18.328125 24.671875 19 25.5 19 L 28 19 L 28 21 L 25.5 21 C 24.671875 21 24 21.671875 24 22.5 L 24 28 C 24 29.257812 24.375 30.421875 25.230469 31.144531 C 26.085938 31.867188 27.105469 32 28.023438 32 C 28.816406 32 29.378906 31.773438 30 31.597656 L 30 31.96875 C 29.964844 32.019531 30.003906 32.027344 29.667969 32.253906 C 29.175781 32.582031 28.25 33 26.5 33 C 23.996094 33 22 31.003906 22 28.5 L 22 22.5 C 22 21.671875 21.328125 21 20.5 21 L 19 21 L 19 19.757812 C 19.476562 19.636719 19.960938 19.527344 20.523438 19.226562 C 21.792969 18.539062 23.09375 17.128906 23.679688 15 Z M 23.679688 15 "/>
</g>
</svg>
